<svg width="21" height="24" viewBox="0 0 21 24" fill="none" xmlns="http://www.w3.org/2000/svg">
<path d="M19.7806 18.424C19.4328 19.2275 19.0211 19.9672 18.5441 20.6472C17.8938 21.5743 17.3614 22.216 16.9511 22.5724C16.3151 23.1573 15.6336 23.4568 14.9039 23.4739C14.38 23.4739 13.7483 23.3248 13.0129 23.0224C12.275 22.7214 11.597 22.5724 10.977 22.5724C10.3268 22.5724 9.62941 22.7214 8.88349 23.0224C8.13644 23.3248 7.53463 23.4824 7.0745 23.498C6.37472 23.5278 5.67722 23.2197 4.98099 22.5724C4.53662 22.1848 3.98081 21.5204 3.31496 20.5791C2.60057 19.5739 2.01323 18.4084 1.5531 17.0795C1.06032 15.6442 0.813293 14.2543 0.813293 12.9087C0.813293 11.3673 1.14636 10.0379 1.81348 8.92385C2.33778 8.029 3.03528 7.32312 3.90826 6.80493C4.78124 6.28674 5.7245 6.02267 6.7403 6.00578C7.29611 6.00578 8.02499 6.1777 8.93077 6.51559C9.83399 6.85462 10.4139 7.02655 10.6682 7.02655C10.8583 7.02655 11.5026 6.82552 12.5948 6.42473C13.6276 6.05305 14.4993 5.89916 15.2134 5.95978C17.1485 6.11595 18.6023 6.87876 19.5691 8.25303C17.8385 9.30163 16.9824 10.7703 16.9994 12.6544C17.015 14.122 17.5474 15.3432 18.5937 16.3129C19.0679 16.7629 19.5975 17.1107 20.1867 17.3578C20.0589 17.7283 19.924 18.0832 19.7806 18.424ZM15.3426 0.960131C15.3426 2.11039 14.9224 3.18439 14.0847 4.17847C13.0739 5.36023 11.8513 6.04311 10.5254 5.93536C10.5085 5.79736 10.4987 5.65213 10.4987 5.49951C10.4987 4.39526 10.9794 3.21349 11.8331 2.24724C12.2593 1.75801 12.8013 1.35122 13.4586 1.02671C14.1146 0.707053 14.735 0.530273 15.3185 0.5C15.3355 0.653772 15.3426 0.807554 15.3426 0.960116V0.960131Z" fill="black"/>
</svg>
